<svg xmlns="http://www.w3.org/2000/svg" id="visual" viewBox="0 0 900 600" width="900" height="600" xmlns:xlink="http://www.w3.org/1999/xlink" version="1.1"><rect fill="#640202" x="0" y="0" width="900" height="600" /><path fill="#9b0606" stroke-linecap="round" stroke-linejoin="miter" d="M 0 122 L 21.5 132.7 C 43 143.3 86 164.7 128.8 159.5 C 171.7 154.3 214.3 122.7 257.2 120 C 300 117.3 343 143.7 385.8 151.3 C 428.7 159 471.3 148 514.2 134.7 C 557 121.3 600 105.7 642.8 99 C 685.7 92.3 728.3 94.7 771.2 109.3 C 814 124 857 151 878.5 164.5 L 900 178 L 900 0 L 878.5 0 C 857 0 814 0 771.2 0 C 728.3 0 685.7 0 642.8 0 C 600 0 557 0 514.2 0 C 471.3 0 428.7 0 385.8 0 C 343 0 300 0 257.2 0 C 214.3 0 171.7 0 128.8 0 C 86 0 43 0 21.5 0 L 0 0 Z" /></svg>